<svg width="46" height="46" viewBox="0 0 46 46" fill="none" xmlns="http://www.w3.org/2000/svg">
<rect x="3" y="3" width="40" height="40" rx="20" fill="#2B4873"/>
<g clip-path="url(#clip0_69_22299)">
<path fill-rule="evenodd" clip-rule="evenodd" d="M27.8426 17.5478C26.6036 16.3661 24.9501 15.7223 23.2392 15.7488C20.1086 15.7488 17.4498 17.8609 16.5018 20.7049V20.7049C15.9991 22.1953 15.9991 23.8091 16.5018 25.2994H16.5062C17.4586 28.139 20.113 30.2511 23.2437 30.2511C24.8597 30.2511 26.247 29.8378 27.3223 29.1077V29.1047C28.5878 28.2669 29.452 26.9486 29.721 25.4582H23.2393V20.8372H34.558C34.6991 21.6397 34.7653 22.4599 34.7653 23.2756C34.7653 26.9254 33.4609 30.0112 31.1913 32.1012L31.1937 32.103C29.2051 33.9373 26.4757 35 23.2392 35C18.702 35 14.5529 32.4426 12.5157 28.3904V28.3904C10.8138 24.9996 10.8138 21.0048 12.5158 17.614H12.5158L12.5157 17.614C14.5529 13.5574 18.702 11 23.2392 11C26.22 10.9647 29.0992 12.0847 31.2686 14.1218L27.8426 17.5478Z" fill="white"/>
</g>
<rect x="1.5" y="1.5" width="43" height="43" rx="21.5" stroke="#CEE5F5" stroke-opacity="0.5" stroke-width="3"/>
<defs>
<clipPath id="clip0_69_22299">
<rect width="24" height="24" fill="white" transform="translate(11 11)"/>
</clipPath>
</defs>
</svg>
