<svg width="46" height="46" viewBox="0 0 46 46" fill="none" xmlns="http://www.w3.org/2000/svg">
<rect x="3" y="3" width="40" height="40" rx="20" fill="#2B4873"/>
<g clip-path="url(#clip0_69_22301)">
<path d="M33.2234 11H12.7719C11.7922 11 11 11.7734 11 12.7297V33.2656C11 34.2219 11.7922 35 12.7719 35H33.2234C34.2031 35 35 34.2219 35 33.2703V12.7297C35 11.7734 34.2031 11 33.2234 11ZM18.1203 31.4516H14.5578V19.9953H18.1203V31.4516ZM16.3391 18.4344C15.1953 18.4344 14.2719 17.5109 14.2719 16.3719C14.2719 15.2328 15.1953 14.3094 16.3391 14.3094C17.4781 14.3094 18.4016 15.2328 18.4016 16.3719C18.4016 17.5062 17.4781 18.4344 16.3391 18.4344ZM31.4516 31.4516H27.8937V25.8828C27.8937 24.5562 27.8703 22.8453 26.0422 22.8453C24.1906 22.8453 23.9094 24.2937 23.9094 25.7891V31.4516H20.3563V19.9953H23.7687V21.5609H23.8156C24.2891 20.6609 25.4516 19.7094 27.1813 19.7094C30.7859 19.7094 31.4516 22.0813 31.4516 25.1656V31.4516Z" fill="white"/>
</g>
<rect x="1.5" y="1.5" width="43" height="43" rx="21.5" stroke="#CEE5F5" stroke-opacity="0.5" stroke-width="3"/>
<defs>
<clipPath id="clip0_69_22301">
<rect width="24" height="24" fill="white" transform="translate(11 11)"/>
</clipPath>
</defs>
</svg>
