<svg width="25" height="24" viewBox="0 0 25 24" fill="none" xmlns="http://www.w3.org/2000/svg">
<path fill-rule="evenodd" clip-rule="evenodd" d="M8.68599 3.63755C7.40136 2.96889 5.99658 3.19699 5.02587 3.91894C4.04989 4.64482 3.46219 5.9195 3.92813 7.296L4.6828 9.52545L10.295 11.0334C11.2843 11.2992 11.2816 12.7038 10.2914 12.9659L4.67063 14.4534L3.91041 16.6716C3.43927 18.0463 4.02215 19.3232 4.99538 20.0528C5.96335 20.7784 7.36726 21.0118 8.65441 20.348L19.5414 14.7334C21.8227 13.5569 21.8285 10.4783 19.5517 9.29321L8.68599 3.63755ZM5.25545 12.747L8.09501 11.9955L5.26115 11.2341L5.3589 11.5228C5.46137 11.8255 5.46076 12.1479 5.35715 12.4502L5.25545 12.747Z" fill="#CEE5F5"/>
</svg>
