<svg width="46" height="46" viewBox="0 0 46 46" fill="none" xmlns="http://www.w3.org/2000/svg">
<rect x="3" y="3" width="40" height="40" rx="20" fill="#2B4873"/>
<path d="M28.0725 11H24.0278V27.3478C24.0278 29.2957 22.4722 30.8957 20.5363 30.8957C18.6003 30.8957 17.0447 29.2957 17.0447 27.3478C17.0447 25.4348 18.5658 23.8695 20.4326 23.8V19.6957C16.3187 19.7652 13 23.1391 13 27.3478C13 31.5913 16.3879 35 20.5708 35C24.7538 35 28.1416 31.5565 28.1416 27.3478V18.9652C29.6627 20.0783 31.5295 20.7391 33.5 20.7739V16.6696C30.4579 16.5652 28.0725 14.0609 28.0725 11Z" fill="white"/>
<rect x="1.5" y="1.5" width="43" height="43" rx="21.5" stroke="#CEE5F5" stroke-opacity="0.5" stroke-width="3"/>
</svg>
