<svg width="46" height="46" viewBox="0 0 46 46" fill="none" xmlns="http://www.w3.org/2000/svg">
<rect x="3" y="3" width="40" height="40" rx="20" fill="#2B4873"/>
<path d="M18.5502 32.75C27.6045 32.75 32.5583 25.2468 32.5583 18.7419C32.5583 18.531 32.5536 18.3154 32.5442 18.1044C33.5079 17.4075 34.3395 16.5443 35 15.5554C34.1025 15.9547 33.1496 16.2154 32.1739 16.3288C33.2013 15.713 33.9705 14.7455 34.3391 13.6058C33.3726 14.1786 32.3156 14.5827 31.2134 14.8007C30.4708 14.0116 29.489 13.4892 28.4197 13.3141C27.3504 13.139 26.2532 13.3211 25.2977 13.8322C24.3423 14.3432 23.5818 15.1548 23.1338 16.1414C22.6859 17.128 22.5754 18.2347 22.8195 19.2904C20.8625 19.1922 18.9479 18.6838 17.2 17.7982C15.452 16.9126 13.9097 15.6695 12.673 14.1496C12.0444 15.2333 11.8521 16.5157 12.135 17.7362C12.418 18.9566 13.1551 20.0235 14.1964 20.72C13.4146 20.6952 12.65 20.4847 11.9656 20.106V20.1669C11.9649 21.3042 12.3581 22.4066 13.0783 23.2868C13.7985 24.167 14.8013 24.7706 15.9162 24.995C15.1921 25.1932 14.432 25.2221 13.6948 25.0794C14.0095 26.0575 14.6216 26.913 15.4458 27.5264C16.27 28.1398 17.2651 28.4807 18.2923 28.5013C16.5484 29.8712 14.3942 30.6142 12.1766 30.6107C11.7833 30.6101 11.3904 30.586 11 30.5385C13.2529 31.9838 15.8735 32.7514 18.5502 32.75Z" fill="white"/>
<rect x="1.5" y="1.5" width="43" height="43" rx="21.5" stroke="#CEE5F5" stroke-opacity="0.5" stroke-width="3"/>
</svg>
