<svg width="44" height="44" viewBox="0 0 44 44" fill="none" xmlns="http://www.w3.org/2000/svg">
<path d="M16.7572 2.84664C19.2924 -0.94888 24.7076 -0.94888 27.2428 2.84664L30.5208 7.75415C31.3441 8.98661 32.5474 9.89238 33.9332 10.3227L39.4511 12.0361C43.7187 13.3613 45.3921 18.6971 42.6913 22.368L39.1993 27.1145C38.3224 28.3065 37.8627 29.772 37.8959 31.2705L38.0282 37.2369C38.1305 41.8515 33.7495 45.1491 29.5451 43.6224L24.1089 41.6483C22.7437 41.1526 21.2563 41.1526 19.8911 41.6483L14.4549 43.6224C10.2505 45.1491 5.86954 41.8515 5.97182 37.2369L6.10406 31.2705C6.13727 29.772 5.67764 28.3065 4.80067 27.1145L1.30869 22.368C-1.39205 18.6971 0.281316 13.3613 4.54893 12.0361L10.0668 10.3227C11.4526 9.89238 12.6559 8.98661 13.4792 7.75415L16.7572 2.84664Z" fill="#E4C03E"/>
</svg>
