<svg width="46" height="46" viewBox="0 0 46 46" fill="none" xmlns="http://www.w3.org/2000/svg">
<rect x="3" y="3" width="40" height="40" rx="20" fill="#2B4873"/>
<path d="M34.7609 18.2C34.7609 18.2 34.5266 16.5454 33.8047 15.8188C32.8906 14.8625 31.8688 14.8579 31.4 14.8016C28.0438 14.5579 23.0047 14.5579 23.0047 14.5579H22.9953C22.9953 14.5579 17.9563 14.5579 14.6 14.8016C14.1313 14.8579 13.1094 14.8625 12.1953 15.8188C11.4734 16.5454 11.2437 18.2 11.2437 18.2C11.2437 18.2 11 20.1454 11 22.086V23.9047C11 25.8454 11.2391 27.7907 11.2391 27.7907C11.2391 27.7907 11.4734 29.4454 12.1906 30.1719C13.1047 31.1282 14.3047 31.0954 14.8391 31.1985C16.7609 31.3813 23 31.4375 23 31.4375C23 31.4375 28.0438 31.4282 31.4 31.1891C31.8688 31.1329 32.8906 31.1282 33.8047 30.1719C34.5266 29.4454 34.7609 27.7907 34.7609 27.7907C34.7609 27.7907 35 25.85 35 23.9047V22.086C35 20.1454 34.7609 18.2 34.7609 18.2ZM20.5203 26.1125V19.3672L27.0031 22.7516L20.5203 26.1125Z" fill="white"/>
<rect x="1.5" y="1.5" width="43" height="43" rx="21.5" stroke="#CEE5F5" stroke-opacity="0.5" stroke-width="3"/>
</svg>
